<?xml version="1.0" encoding="UTF-8"?>
<svg width="46px" height="56px" viewBox="0 0 46 56" version="1.1" xmlns="http://www.w3.org/2000/svg" xmlns:xlink="http://www.w3.org/1999/xlink">
    <!-- Generator: Sketch 60 (88103) - https://sketch.com -->
    <title>Account</title>
    <desc>Created with Sketch.</desc>
    <g id="Hifi" stroke="none" stroke-width="1" fill="none" fill-rule="evenodd">
        <g id="Landing-Page" transform="translate(-1190.000000, -50.000000)" fill="#67584F" fill-rule="nonzero">
            <g id="Account" transform="translate(1190.000000, 50.000000)">
                <g id="Group">
                    <path d="M33.682933,14.2041667 C33.682933,14.7758333 33.642225,15.3416667 33.5666245,15.9075 C33.5898862,15.75 33.6073325,15.5983333 33.6305942,15.4408333 C33.4793932,16.5083333 33.2002528,17.5525 32.7873578,18.5441667 C32.845512,18.4041667 32.9036662,18.2641667 32.9618205,18.1241667 C32.653603,18.8591667 32.2756005,19.565 31.8336283,20.2241667 C31.7231353,20.3933333 31.6010114,20.5625 31.4788875,20.7258333 C31.2230088,21.07 31.6998736,20.4516667 31.5195954,20.6733333 C31.4556258,20.755 31.3916561,20.8308333 31.3276865,20.9125 C31.0834387,21.2041667 30.8275601,21.49 30.5600506,21.7583333 C30.2925411,22.0266667 30.0075853,22.2891667 29.7168142,22.5283333 C29.6412137,22.5925 29.5597977,22.6566667 29.4783818,22.7208333 C29.2515803,22.9016667 29.8738306,22.4233333 29.5307206,22.68 C29.3678887,22.8025 29.1992415,22.9191667 29.0305942,23.0358333 C28.3676359,23.4791667 27.6697851,23.8525 26.9370417,24.1675 C27.0766119,24.1091667 27.216182,24.0508333 27.3557522,23.9925 C26.3613148,24.4066667 25.3261694,24.6925 24.2619469,24.8383333 C24.4189633,24.815 24.5701643,24.7975 24.7271808,24.7741667 C23.5989886,24.9258333 22.464981,24.9258333 21.3367889,24.7741667 C21.4938053,24.7975 21.6450063,24.815 21.8020228,24.8383333 C20.7378003,24.6866667 19.6968394,24.4066667 18.7082174,23.9925 C18.8477876,24.0508333 18.9873578,24.1091667 19.1269279,24.1675 C18.3941846,23.8583333 17.6905183,23.4791667 17.0333755,23.0358333 C16.8647282,22.925 16.6960809,22.8025 16.5332491,22.68 C16.1901391,22.4233333 16.806574,22.9016667 16.5855879,22.7208333 C16.5041719,22.6566667 16.4285714,22.5925 16.3471555,22.5283333 C16.0563843,22.2833333 15.7714286,22.0266667 15.5039191,21.7583333 C15.2364096,21.49 14.9747155,21.2041667 14.7362832,20.9125 C14.6723135,20.8366667 14.6083439,20.755 14.5443742,20.6733333 C14.3640961,20.4458333 14.8409608,21.07 14.5850822,20.7258333 C14.4629583,20.5625 14.3466498,20.3933333 14.2303413,20.2241667 C13.7883692,19.5591667 13.416182,18.8591667 13.1021492,18.1241667 C13.1603034,18.2641667 13.2184576,18.4041667 13.2766119,18.5441667 C12.8637168,17.5466667 12.5787611,16.5083333 12.4333755,15.4408333 C12.4566372,15.5983333 12.4740834,15.75 12.4973451,15.9075 C12.3461441,14.7758333 12.3461441,13.6383333 12.4973451,12.5066667 C12.4740834,12.6641667 12.4566372,12.8158333 12.4333755,12.9733333 C12.5845765,11.9058333 12.8637168,10.8616667 13.2766119,9.87 C13.2184576,10.01 13.1603034,10.15 13.1021492,10.29 C13.4103666,9.555 13.7883692,8.84916667 14.2303413,8.19 C14.3408344,8.02083333 14.4629583,7.85166667 14.5850822,7.68833333 C14.8409608,7.34416667 14.3640961,7.9625 14.5443742,7.74083333 C14.6083439,7.65916667 14.6723135,7.58333333 14.7362832,7.50166667 C14.980531,7.21 15.2364096,6.92416667 15.5039191,6.65583333 C15.7714286,6.3875 16.0563843,6.125 16.3471555,5.88583333 C16.422756,5.82166667 16.5041719,5.7575 16.5855879,5.69333333 C16.8123894,5.5125 16.1901391,5.99083333 16.5332491,5.73416667 C16.6960809,5.61166667 16.8647282,5.495 17.0333755,5.37833333 C17.6963338,4.935 18.3941846,4.56166667 19.1269279,4.24666667 C18.9873578,4.305 18.8477876,4.36333333 18.7082174,4.42166667 C19.7026549,4.0075 20.7378003,3.72166667 21.8020228,3.57583333 C21.6450063,3.59916667 21.4938053,3.61666667 21.3367889,3.64 C22.464981,3.48833333 23.5989886,3.48833333 24.7271808,3.64 C24.5701643,3.61666667 24.4189633,3.59916667 24.2619469,3.57583333 C25.3261694,3.7275 26.3671302,4.0075 27.3557522,4.42166667 C27.216182,4.36333333 27.0766119,4.305 26.9370417,4.24666667 C27.6697851,4.55583333 28.3734513,4.935 29.0305942,5.37833333 C29.1992415,5.48916667 29.3678887,5.61166667 29.5307206,5.73416667 C29.8738306,5.99083333 29.2573957,5.5125 29.4783818,5.69333333 C29.5597977,5.7575 29.6353982,5.82166667 29.7168142,5.88583333 C30.0075853,6.13083333 30.2925411,6.3875 30.5600506,6.65583333 C30.8275601,6.92416667 31.0892541,7.21 31.3276865,7.50166667 C31.3916561,7.5775 31.4556258,7.65916667 31.5195954,7.74083333 C31.6998736,7.96833333 31.2230088,7.34416667 31.4788875,7.68833333 C31.6010114,7.85166667 31.7173198,8.02083333 31.8336283,8.19 C32.2756005,8.855 32.6477876,9.555 32.9618205,10.29 C32.9036662,10.15 32.845512,10.01 32.7873578,9.87 C33.2002528,10.8675 33.4852086,11.9058333 33.6305942,12.9733333 C33.6073325,12.8158333 33.5898862,12.6641667 33.5666245,12.5066667 C33.642225,13.0725 33.682933,13.6383333 33.682933,14.2041667 C33.6887484,15.12 34.4854614,15.995 35.4275601,15.9541667 C36.3696587,15.9133333 37.1780337,15.1841667 37.1721871,14.2041667 C37.1605563,11.34 36.2998736,8.44083333 34.630847,6.10166667 C32.9094817,3.68083333 30.5600506,1.8725 27.7802781,0.845833333 C22.354488,-1.16083333 15.8819216,0.600833333 12.2123894,5.08083333 C10.299115,7.42 9.15929204,10.2083333 8.92667509,13.23 C8.705689,16.1058333 9.43261694,19.0808333 10.9271808,21.5483333 C12.3694058,23.9283333 14.5385588,25.9291667 17.0798989,27.0725 C18.5337547,27.7258333 19.993426,28.1283333 21.5752212,28.315 C23.040708,28.49 24.5294564,28.385 25.9774968,28.0875 C31.5428571,26.9558333 36.1312263,22.1841667 36.9802781,16.5375 C37.0965866,15.7675 37.1780337,14.9916667 37.1780337,14.21 C37.183818,13.2941667 36.3754741,12.4191667 35.4333755,12.46 C34.479646,12.5008333 33.6887484,13.2241667 33.682933,14.2041667 Z" id="Path"></path>
                    <path d="M41.4465234,52.4825 C40.2078382,52.4825 38.969153,52.4825 37.7304678,52.4825 C34.7762326,52.4825 31.816182,52.4825 28.8619469,52.4825 C25.2970923,52.4825 21.7322377,52.4825 18.1673831,52.4825 C15.0968394,52.4825 12.0321113,52.4825 8.96156764,52.4825 C7.5193426,52.4825 6.082933,52.4883333 4.64070796,52.4825 C4.49532238,52.4825 4.34993679,52.4708333 4.2045512,52.4533333 C4.36156764,52.4766667 4.51276865,52.4941667 4.66978508,52.5175 C4.43716814,52.4825 4.21618205,52.4183333 4.00101138,52.3308333 C4.14058154,52.3891667 4.28015171,52.4475 4.41972187,52.5058333 C4.25689001,52.4358333 4.09987358,52.3541667 3.94867257,52.255 C3.79747155,52.1558333 3.74513274,52.0216667 4.05916561,52.3483333 C4.00101138,52.2841667 3.92541087,52.2316667 3.86725664,52.1733333 C3.84981037,52.1558333 3.68116308,51.9866667 3.69279393,51.9808333 C3.69279393,51.9808333 3.99519595,52.4066667 3.78584071,52.0916667 C3.68697851,51.9458333 3.60556258,51.7883333 3.5357775,51.6191667 C3.59393173,51.7591667 3.65208597,51.8991667 3.7102402,52.0391667 C3.62300885,51.8233333 3.56485461,51.5958333 3.52414665,51.3683333 C3.54740834,51.5258333 3.56485461,51.6775 3.58811631,51.835 C3.54740834,51.5083333 3.55903919,51.17 3.55903919,50.8433333 C3.55903919,50.2775 3.55903919,49.7058333 3.55903919,49.14 C3.55903919,48.0083333 3.55903919,46.8766667 3.55903919,45.745 C3.55903919,45.0741667 3.58811631,44.4033333 3.67534766,43.7383333 C3.65208597,43.8958333 3.6346397,44.0475 3.611378,44.205 C3.77420986,43.0091667 4.08824273,41.8366667 4.55929204,40.7225 C4.5011378,40.8625 4.44298357,41.0025 4.38482933,41.1425 C4.64652339,40.53 4.94892541,39.935 5.29785082,39.3633333 C5.47231353,39.0775 5.65259166,38.8033333 5.85031606,38.535 C5.89683944,38.4708333 5.93754741,38.4125 5.9840708,38.3483333 C6.00733249,38.3191667 6.03059418,38.29 6.05385588,38.255 C6.15271808,38.1208333 5.89102402,38.4883333 5.89683944,38.4591667 C5.92010114,38.3366667 6.15271808,38.1383333 6.23413401,38.045 C6.6528445,37.5491667 7.10644753,37.0883333 7.59494311,36.6566667 C7.717067,36.5458333 7.84500632,36.4408333 7.97294564,36.3358333 C8.03109987,36.2891667 8.08925411,36.2425 8.15322377,36.19 C8.35094817,36.0266667 7.79266751,36.4583333 8.07180784,36.2541667 C8.33931732,36.0558333 8.6068268,35.8633333 8.88596713,35.6883333 C9.51984829,35.28 10.1944374,34.9241667 10.8864728,34.6266667 C10.7469027,34.685 10.6073325,34.7433333 10.4677623,34.8016667 C11.5785082,34.335 12.7415929,34.0141667 13.9395702,33.8508333 C13.7825537,33.8741667 13.6313527,33.8916667 13.4743363,33.915 C14.4280657,33.7925 15.3817952,33.7983333 16.3413401,33.7983333 C17.6439949,33.7983333 18.9408344,33.7983333 20.2434893,33.7983333 C23.2791403,33.7983333 26.3147914,33.7983333 29.3504425,33.7983333 C30.4321113,33.7983333 31.5079646,33.775 32.583818,33.915 C32.4268015,33.8916667 32.2756005,33.8741667 32.1185841,33.8508333 C33.3107459,34.0141667 34.479646,34.3291667 35.5903919,34.8016667 C35.4508217,34.7433333 35.3112516,34.685 35.1716814,34.6266667 C35.7823009,34.8891667 36.3754741,35.1925 36.9453856,35.5425 C37.2303413,35.7175 37.5036662,35.8983333 37.7711757,36.0966667 C37.8351454,36.1433333 37.8932996,36.1841667 37.9572693,36.2308333 C37.9863464,36.2541667 38.0154235,36.2775 38.0503161,36.3008333 C38.1840708,36.4 37.8176991,36.1375 37.8467762,36.1433333 C37.9689001,36.1666667 38.1666245,36.4 38.2596713,36.4816667 C38.7539823,36.9016667 39.2134008,37.3566667 39.6437421,37.8466667 C39.7542351,37.9691667 39.8589128,38.0975 39.9635904,38.2258333 C40.0101138,38.2841667 40.0566372,38.3425 40.108976,38.4066667 C40.2718078,38.605 39.8414665,38.045 40.0450063,38.325 C40.2427307,38.5933333 40.4346397,38.8616667 40.6091024,39.1416667 C41.016182,39.7775 41.3709229,40.4541667 41.6675095,41.1483333 C41.6093552,41.0083333 41.551201,40.8683333 41.4930468,40.7283333 C41.9582807,41.8425 42.278129,43.0091667 42.4409608,44.2108333 C42.4176991,44.0533333 42.4002528,43.9016667 42.3769912,43.7441667 C42.5107459,44.7941667 42.4932996,45.85 42.4932996,46.9058333 C42.4932996,48.1541667 42.4932996,49.4025 42.4932996,50.6508333 C42.4932996,51.0416667 42.5165613,51.4441667 42.4642225,51.835 C42.4874842,51.6775 42.5049305,51.5258333 42.5281922,51.3683333 C42.4932996,51.6016667 42.42933,51.8233333 42.3420986,52.0391667 C42.4002528,51.8991667 42.4584071,51.7591667 42.5165613,51.6191667 C42.4467762,51.7825 42.3653603,51.94 42.2664981,52.0916667 C42.1676359,52.2433333 42.0338812,52.2958333 42.3595449,51.9808333 C42.2955752,52.0391667 42.2432364,52.115 42.1850822,52.1733333 C42.1676359,52.1908333 41.9989886,52.36 41.9931732,52.3483333 C41.9931732,52.3483333 42.4176991,52.045 42.1036662,52.255 C41.9582807,52.3541667 41.8012642,52.4358333 41.6326169,52.5058333 C41.7721871,52.4475 41.9117573,52.3891667 42.0513274,52.3308333 C41.8361568,52.4183333 41.6093552,52.4766667 41.3825537,52.5175 C41.5395702,52.4941667 41.6907712,52.4766667 41.8477876,52.4533333 C41.7140329,52.4708333 41.5860936,52.4766667 41.4465234,52.4825 C40.5335019,52.4941667 39.6611884,53.2758333 39.7018963,54.2325 C39.7426043,55.1716667 40.4695322,55.9941667 41.4465234,55.9826226 C43.5458913,55.9533333 45.546397,54.4308333 45.889507,52.2958333 C46.0174463,51.5025 45.9825537,50.6975 45.9825537,49.8983333 C45.9825537,48.8425 45.9825537,47.7808333 45.9825537,46.725 C45.9825537,45.9841667 46,45.2375 45.9418458,44.4966667 C45.6917826,41.125 44.3774968,37.9691667 42.1560051,35.42 C40.0740834,33.0283333 37.1547408,31.3016667 34.0551201,30.6483333 C32.4616941,30.31 30.8798989,30.2925 29.2690265,30.2925 C27.3615676,30.2925 25.4541087,30.2925 23.5408344,30.2925 C21.5112516,30.2925 19.4874842,30.2925 17.4579014,30.2925 C16.2250316,30.2925 14.9689001,30.24 13.7418458,30.3741667 C11.9797724,30.5725 10.3340076,31.0216667 8.72313527,31.7683333 C7.29835651,32.4275 5.97825537,33.355 4.83261694,34.4283333 C2.51807838,36.5983333 0.866498104,39.5791667 0.319848293,42.7116667 C-0.0348925411,44.7591667 0.0581542351,46.8358333 0.0581542351,48.9066667 C0.0581542351,49.7116667 0.0581542351,50.5225 0.0581542351,51.3275 C0.0581542351,53.0133333 0.953729456,54.7166667 2.50644753,55.4691667 C3.22756005,55.8191667 3.97774968,55.9826226 4.78027813,55.9826226 C5.0710493,55.9826226 5.36182048,55.9826226 5.65840708,55.9826226 C6.84475348,55.9826226 8.03109987,55.9826226 9.21163085,55.9826226 C10.9969659,55.9826226 12.7764855,55.9826226 14.5618205,55.9826226 C16.6728192,55.9826226 18.783818,55.9826226 20.9006321,55.9826226 C23.0930468,55.9826226 25.2854614,55.9826226 27.4836915,55.9826226 C29.5132743,55.9826226 31.5428571,55.9826226 33.5724399,55.9826226 C35.165866,55.9826226 36.759292,55.9826226 38.3469027,55.9826226 C39.2599241,55.9826226 40.1671302,55.9826226 41.0801517,55.9826226 C41.2022756,55.9826226 41.3185841,55.9826226 41.440708,55.9826226 C42.3537295,55.9826226 43.226043,55.1775 43.185335,54.2325 C43.1504425,53.2816667 42.42933,52.4825 41.4465234,52.4825 Z" id="Path"></path>
                </g>
            </g>
        </g>
    </g>
</svg>