<?xml version="1.0" encoding="UTF-8"?>
<svg width="312px" height="280px" viewBox="0 0 312 280" version="1.1" xmlns="http://www.w3.org/2000/svg" xmlns:xlink="http://www.w3.org/1999/xlink">
    <!-- Generator: Sketch 60 (88103) - https://sketch.com -->
    <title>baseICON</title>
    <desc>Created with Sketch.</desc>
    <g id="Hifi" stroke="none" stroke-width="1" fill="none" fill-rule="evenodd">
        <g id="Landing-Page" transform="translate(-568.000000, -1564.000000)">
            <g id="part-3" transform="translate(216.000000, 1556.000000)">
                <g id="base" transform="translate(352.000000, 8.000000)">
                    <g id="baseICON">
                        <rect id="Rectangle" fill="#EDE4E4" x="0" y="0" width="280" height="280" rx="34"></rect>
                        <path d="M312,139.753 C312,139.753 312,139.753 312,139.753 C312,136.137667 312,132.532722 312,128.938167 C311.792362,131.337998 310.298749,133.437264 308.097222,134.4235 L302.976778,137.353167 L298.699333,139.815333 L227.981,180.519 C227.40856,180.841352 226.813831,181.122564 226.201333,181.3605 L225.982778,181.3605 L225.982778,181.3605 L224.733889,181.796833 L224.234333,181.796833 L223.422556,181.983833 L222.891778,181.983833 L222.891778,181.983833 L222.267333,181.983833 L221.705333,181.983833 L220.987222,181.983833 L217.865,181.983833 L216.990778,181.983833 L216.491222,181.983833 L214.992556,181.765667 L214.493,181.765667 L213.774889,181.765667 L213.212889,181.765667 L212.869444,181.765667 L212.557222,181.765667 L212.151333,181.765667 L211.152222,181.391667 L210.746333,181.204667 L209.497444,180.581333 L44.3318889,84.8685 L41.2096667,83.0608333 L34.9652222,79.352 L34.4656667,79.0403333 L33.9973333,78.7286667 L33.6226667,78.417 L33.2167778,78.1053333 L32.8733333,77.8871667 L32.3113333,77.295 L32.0927778,76.9833333 L31.7805556,76.5158333 L31.5932222,76.2041667 L31.4058889,75.799 L31.4058889,75.4561667 C31.4058889,75.4561667 31.4058889,75.1756667 31.4058889,75.051 L31.4058889,74.7081667 C31.4058889,74.7081667 31.4058889,74.4276667 31.4058889,74.303 C31.4058889,74.1783333 31.4058889,74.0536667 31.4058889,73.8978333 C31.4058889,77.5131667 31.4058889,81.1181111 31.4058889,84.7126667 L31.4058889,84.7126667 L31,84.7126667 L31,107.557833 C31.0730854,108.714011 31.7825648,109.734324 32.8421111,110.207 C33.1807794,110.403689 33.5359749,110.570543 33.9036667,110.705667 L34.1222222,110.705667 L34.934,110.955 L35.1213333,110.955 L35.3086667,110.955 L35.6208889,110.955 L36.2765556,110.955 L38.2435556,110.955 L38.9616667,110.955 L39.8046667,110.955 L39.992,110.955 L40.3666667,111.266667 L40.7725556,111.266667 L40.7725556,111.266667 C41.2259063,111.120019 41.6648505,110.932234 42.0838889,110.705667 L42.3961111,110.518667 L42.7083333,110.269333 L43.4888889,109.801833 L43.4888889,109.801833 L43.8947778,109.3655 L43.8947778,109.3655 L43.8947778,109.3655 L44.0821111,109.116167 L44.2382222,108.742167 L44.2382222,108.742167 C44.245359,108.6384 44.245359,108.534267 44.2382222,108.4305 C44.2487951,108.306057 44.2487951,108.180943 44.2382222,108.0565 L44.2382222,108.0565 L44.2382222,95.6833333 L209.091556,191.302667 L210.340444,191.926 L210.715111,192.081833 L211.745444,192.455833 L211.995222,192.455833 L212.151333,192.455833 L212.463556,192.455833 L212.463556,206.730167 C212.536641,207.886344 213.24612,208.906657 214.305667,209.379333 C214.644553,209.575608 214.999712,209.742444 215.367222,209.878 L215.367222,209.878 L216.179,210.127333 L216.366333,210.127333 L216.553667,210.127333 L216.865889,210.127333 L217.521556,210.127333 L219.488556,210.127333 L220.206667,210.127333 L221.049667,210.127333 L221.455556,210.127333 L222.048778,210.127333 L222.454667,210.127333 L222.454667,210.127333 C222.907656,209.979727 223.346515,209.791979 223.766,209.566333 L224.078222,209.379333 L224.390444,209.13 L224.733889,208.880667 L224.733889,208.880667 L225.139778,208.444333 L225.139778,208.444333 L225.139778,208.444333 L225.327111,208.195 L225.483222,207.821 L225.483222,207.821 C225.490077,207.717224 225.490077,207.61311 225.483222,207.509333 C225.492969,207.384856 225.492969,207.25981 225.483222,207.135333 L225.483222,207.135333 L225.483222,192.3 L225.483222,192.3 L225.483222,192.3 L225.483222,192.3 C226.094878,192.060118 226.689474,191.778968 227.262889,191.4585 L298.824222,150.5055 L298.824222,161.507333 C298.897308,162.663511 299.606787,163.683824 300.666333,164.1565 C301.005219,164.352775 301.360378,164.519611 301.727889,164.655167 L301.727889,164.655167 L302.539667,164.9045 L302.727,164.9045 L302.914333,164.9045 L303.226556,164.9045 L303.882222,164.9045 L305.849222,164.9045 L306.567333,164.9045 L307.410333,164.9045 L307.597667,164.9045 L308.190889,164.9045 L308.596778,164.9045 L308.596778,164.9045 C309.12857,164.741165 309.641425,164.521761 310.126667,164.25 L310.438889,164.063 L310.751111,163.813667 L311.094556,163.533167 L311.094556,163.533167 L311.500444,163.096833 L311.500444,163.096833 L311.500444,163.096833 L311.687778,162.816333 L311.843889,162.442333 L311.843889,162.442333 C311.850743,162.338557 311.850743,162.234443 311.843889,162.130667 C311.853635,162.00619 311.853635,161.881144 311.843889,161.756667 L311.843889,161.756667 L312,139.753 Z" id="Path" fill="#A39171" fill-rule="nonzero"></path>
                        <path d="M68.0295556,87.8605 C67.2540241,88.1322676 66.7349746,88.8632818 66.7349746,89.68375 C66.7349746,90.5042182 67.2540241,91.2352324 68.0295556,91.507 L73.3061111,94.6236667 C75.2708884,95.6076462 77.5857783,95.6076462 79.5505556,94.6236667 L165.848778,44.757 C166.624309,44.4852324 167.143359,43.7542182 167.143359,42.93375 C167.143359,42.1132818 166.624309,41.3822676 165.848778,41.1105 L160.572222,37.9938333 C158.607445,37.0098538 156.292555,37.0098538 154.327778,37.9938333 L68.0295556,87.8605 Z" id="Path" fill="#A39171" fill-rule="nonzero"></path>
                        <path d="M44.6128889,74.49 C43.8373575,74.7617676 43.3183079,75.4927818 43.3183079,76.31325 C43.3183079,77.1337182 43.8373575,77.8647324 44.6128889,78.1365 L49.8894444,81.2531667 C51.8542217,82.2371462 54.1691116,82.2371462 56.1338889,81.2531667 L142.432111,31.3865 C143.207643,31.1147324 143.726692,30.3837182 143.726692,29.56325 C143.726692,28.7427818 143.207643,28.0117676 142.432111,27.74 L137.155556,24.748 C135.190778,23.7640205 132.875888,23.7640205 130.911111,24.748 L44.6128889,74.49 Z" id="Path" fill="#A39171" fill-rule="nonzero"></path>
                        <path d="M91.2588889,101.3245 C90.4833575,101.596268 89.9643079,102.327282 89.9643079,103.14775 C89.9643079,103.968218 90.4833575,104.699232 91.2588889,104.971 L96.5666667,108.15 C98.5314439,109.13398 100.846334,109.13398 102.811111,108.15 L189.140556,58.2833333 C189.916087,58.0115658 190.435137,57.2805516 190.435137,56.4600833 C190.435137,55.6396151 189.916087,54.9086009 189.140556,54.6368333 L183.832778,51.5201667 C181.868,50.5361872 179.553111,50.5361872 177.588333,51.5201667 L91.2588889,101.3245 Z" id="Path" fill="#A39171" fill-rule="nonzero"></path>
                        <path d="M114.519444,114.819667 C113.743913,115.091434 113.224863,115.822448 113.224863,116.642917 C113.224863,117.463385 113.743913,118.194399 114.519444,118.466167 L119.952111,121.582833 C121.915708,122.571776 124.232959,122.571776 126.196556,121.582833 L212.494778,71.7161667 C213.270309,71.4443991 213.789359,70.7133849 213.789359,69.8929167 C213.789359,69.0724484 213.270309,68.3414342 212.494778,68.0696667 L207.062111,64.953 C205.097334,63.9690205 202.782444,63.9690205 200.817667,64.953 L114.519444,114.819667 Z" id="Path" fill="#A39171" fill-rule="nonzero"></path>
                        <path d="M137.904889,128.408333 C137.129357,128.680101 136.610308,129.411115 136.610308,130.231583 C136.610308,131.052052 137.129357,131.783066 137.904889,132.054833 L143.212667,135.1715 C145.177444,136.15548 147.492334,136.15548 149.457111,135.1715 L235.755333,85.3048333 C236.530865,85.0330658 237.049914,84.3020516 237.049914,83.4815833 C237.049914,82.6611151 236.530865,81.9301009 235.755333,81.6583333 L230.447556,78.5416667 C228.483959,77.5527241 226.166708,77.5527241 224.203111,78.5416667 L137.904889,128.408333 Z" id="Path" fill="#A39171" fill-rule="nonzero"></path>
                        <path d="M161.165444,141.872333 C160.389913,142.144101 159.870863,142.875115 159.870863,143.695583 C159.870863,144.516052 160.389913,145.247066 161.165444,145.518833 L166.473222,148.6355 C168.438,149.61948 170.752889,149.61948 172.717667,148.6355 L258.922222,98.8 C259.697754,98.5282324 260.216803,97.7972182 260.216803,96.97675 C260.216803,96.1562818 259.697754,95.4252676 258.922222,95.1535 L253.614444,92.0368333 C251.650847,91.0478908 249.333597,91.0478908 247.37,92.0368333 L161.165444,141.872333 Z" id="Path" fill="#A39171" fill-rule="nonzero"></path>
                        <path d="M184.426,155.3675 C183.650469,155.639268 183.131419,156.370282 183.131419,157.19075 C183.131419,158.011218 183.650469,158.742232 184.426,159.014 L189.733778,162.130667 C191.698555,163.114646 194.013445,163.114646 195.978222,162.130667 L282.276444,112.264 C283.051976,111.992232 283.571025,111.261218 283.571025,110.44075 C283.571025,109.620282 283.051976,108.889268 282.276444,108.6175 L276.968667,105.500833 C275.003889,104.516854 272.689,104.516854 270.724222,105.500833 L184.426,155.3675 Z" id="Path" fill="#A39171" fill-rule="nonzero"></path>
                        <path d="M207.686556,168.862667 C206.911024,169.134434 206.391975,169.865448 206.391975,170.685917 C206.391975,171.506385 206.911024,172.237399 207.686556,172.509167 L212.994333,175.625833 C214.95793,176.614776 217.275181,176.614776 219.238778,175.625833 L305.537,125.759167 C306.312531,125.487399 306.831581,124.756385 306.831581,123.935917 C306.831581,123.115448 306.312531,122.384434 305.537,122.112667 L300.229222,118.996 C298.264445,118.01202 295.949555,118.01202 293.984778,118.996 L207.686556,168.862667 Z" id="Path" fill="#A39171" fill-rule="nonzero"></path>
                    </g>
                </g>
            </g>
        </g>
    </g>
</svg>