<?xml version="1.0" encoding="UTF-8"?>
<svg width="66px" height="55px" viewBox="0 0 66 55" version="1.1" xmlns="http://www.w3.org/2000/svg" xmlns:xlink="http://www.w3.org/1999/xlink">
    <!-- Generator: Sketch 60 (88103) - https://sketch.com -->
    <title>Cart</title>
    <desc>Created with Sketch.</desc>
    <g id="Hifi" stroke="none" stroke-width="1" fill="none" fill-rule="evenodd">
        <g id="Landing-Page" transform="translate(-1254.000000, -50.000000)" fill="#67584F" fill-rule="nonzero">
            <g id="Cart" transform="translate(1254.000000, 50.000000)">
                <g id="Group">
                    <path d="M61.9366113,10.0588435 C60.9924594,12.4583251 60.0551991,14.8510284 59.1110472,17.25051 C57.6086741,21.0734128 56.106301,24.8895374 54.6108195,28.7124402 C54.2662385,29.5868275 53.9216575,30.467993 53.5770765,31.3423804 C54.238672,30.847572 54.9071591,30.3459855 55.5687546,29.8511772 C54.5005536,29.8511772 53.4254609,29.8511772 52.3572598,29.8511772 C49.8004689,29.8511772 47.2367864,29.8511772 44.6799955,29.8511772 C41.5856582,29.8511772 38.491321,29.8511772 35.3969837,29.8511772 C32.7230353,29.8511772 30.0490868,29.8511772 27.3751383,29.8511772 C26.0726222,29.8511772 24.7701061,29.8172862 23.46759,29.8511772 C23.4469151,29.8511772 23.4331319,29.8511772 23.412457,29.8511772 C24.0740525,30.3459855 24.7425396,30.847572 25.4041351,31.3423804 C25.0733374,30.3527637 24.7425396,29.363147 24.4117419,28.3667521 C23.612314,25.9876052 22.8197777,23.6084582 22.0203498,21.2293113 C21.0624147,18.3621342 20.1044795,15.4949571 19.1396528,12.62778 C18.3057668,10.1401819 17.4718808,7.65258379 16.6448864,5.16498569 C16.2382809,3.95846673 15.8592418,2.74516956 15.4319614,1.54542879 C15.4250697,1.5250942 15.4181781,1.51153781 15.4112865,1.49120322 C15.1218385,0.637150466 14.3568687,0 13.4196084,0 C10.1116309,0 6.80365347,0 3.49567601,0 C3.02015424,0 2.54463248,0 2.06911072,0 C0.987126426,0 -0.0466165324,0.93539111 0.00162480567,2.03345893 C0.0498661437,3.13830496 0.911318609,4.06691787 2.06911072,4.06691787 C5.37708819,4.06691787 8.68506566,4.06691787 11.9930431,4.06691787 C12.4685649,4.06691787 12.9440866,4.06691787 13.4196084,4.06691787 C12.7580129,3.57210953 12.0895258,3.07052299 11.4279303,2.57571465 C11.7587281,3.56533133 12.0895258,4.55494801 12.4203235,5.55134289 C13.2197514,7.93048984 14.0122877,10.3096368 14.8117156,12.6887837 C15.7696507,15.5559608 16.7344775,18.4231379 17.6924126,21.290315 C18.5262986,23.7779131 19.3601846,26.2655112 20.187179,28.7531093 C20.5937845,29.9596283 20.9728236,31.1729255 21.400104,32.3726662 C21.4069957,32.3930008 21.4138873,32.4065572 21.4207789,32.4268918 C21.7102269,33.2809446 22.4751967,33.918095 23.412457,33.918095 C24.4806581,33.918095 25.5557507,33.918095 26.6239518,33.918095 C29.1807427,33.918095 31.7444253,33.918095 34.3012162,33.918095 C37.3955534,33.918095 40.4898907,33.918095 43.5842279,33.918095 C46.2581764,33.918095 48.9321248,33.918095 51.6060733,33.918095 C52.9085894,33.918095 54.2111056,33.9587642 55.5136217,33.918095 C55.5342965,33.918095 55.5480798,33.918095 55.5687546,33.918095 C56.5542563,33.918095 57.229635,33.2741664 57.5604327,32.4268918 C58.5045846,30.0274103 59.4418449,27.6347069 60.3859968,25.2352254 C61.8883699,21.4123226 63.390743,17.596198 64.8862245,13.7732952 C65.2308055,12.8989078 65.5753865,12.0177423 65.9199675,11.143355 C66.0991496,10.6824376 65.9544256,9.99106156 65.7132189,9.57759158 C65.4651206,9.1573434 64.9689239,8.75065161 64.4796189,8.64220047 C63.9489642,8.52697113 63.3562849,8.54730572 62.8876548,8.84554636 C62.4052414,9.1505652 62.1364682,9.5437006 61.9366113,10.0588435 L61.9366113,10.0588435 Z" id="Path"></path>
                    <path d="M21.7791279,30.2185415 C20.6641225,32.1339 19.5422343,34.0426311 18.4272288,35.9579897 C18.2689256,36.2363463 18.1037396,36.5080754 17.9454364,36.786432 C17.1814512,38.092057 18.1450361,39.7754518 19.7280685,39.7754518 C20.9187842,39.7754518 22.1094999,39.7754518 23.3002156,39.7754518 C26.1634394,39.7754518 29.0197805,39.7754518 31.8830043,39.7754518 C35.3450274,39.7754518 38.8070504,39.7754518 42.2690734,39.7754518 C45.2630695,39.7754518 48.2570656,39.7754518 51.2510617,39.7754518 C52.7033218,39.7754518 54.1624647,39.8019619 55.6216077,39.7754518 C55.6422559,39.7754518 55.6629042,39.7754518 55.6835524,39.7754518 C56.7641441,39.7754518 57.7965565,38.8608515 57.7483773,37.7871903 C57.700198,36.7069015 56.8398543,35.7989288 55.6835524,35.7989288 C54.4928367,35.7989288 53.302121,35.7989288 52.1114054,35.7989288 C49.2481815,35.7989288 46.3918405,35.7989288 43.5286166,35.7989288 C40.0665936,35.7989288 36.6045705,35.7989288 33.1425475,35.7989288 C30.1485514,35.7989288 27.1545553,35.7989288 24.1605593,35.7989288 C22.7082991,35.7989288 21.2422734,35.7591635 19.7900133,35.7989288 C19.769365,35.7989288 19.7487168,35.7989288 19.7280685,35.7989288 C20.319985,36.7930595 20.9187842,37.7938178 21.5107007,38.7879485 C22.6257061,36.87259 23.7475943,34.9638589 24.8625997,33.0485003 C25.020903,32.7701437 25.186089,32.4984147 25.3443922,32.220058 C25.8743639,31.3120853 25.5990539,30.0064602 24.6010552,29.5027673 C23.6237048,29.0123295 22.3435134,29.2509209 21.7791279,30.2185415 L21.7791279,30.2185415 Z" id="Path"></path>
                    <path d="M42.4287103,48.5538592 C42.4419202,49.8271172 42.8117996,51.1463174 43.5647682,52.1898638 C44.3969966,53.3384213 45.4603996,54.1391299 46.7946072,54.6379319 C49.1724028,55.5239619 52.1644622,54.7363797 53.7826842,52.7936769 C54.7271975,51.6582458 55.2555965,50.3915511 55.3744863,48.9213976 C55.4801661,47.6678292 55.1234967,46.315813 54.4696029,45.2394507 C53.8289191,44.1959042 52.8711959,43.2770583 51.741743,42.7651298 C50.3877205,42.1481904 48.9808581,41.9775476 47.5211558,42.2597646 C44.5621213,42.8373249 42.4617352,45.6201154 42.4287103,48.5538592 C42.4155003,49.5842793 43.3468036,50.5687571 44.4102066,50.5228148 C45.4934246,50.4768725 46.3784929,49.6564743 46.3917029,48.5538592 C46.3917029,48.3372741 46.4115179,48.1272522 46.4379378,47.9172302 C46.4115179,48.0944362 46.3917029,48.2650791 46.365283,48.4422851 C46.4247279,48.0616203 46.5238027,47.6940819 46.6757174,47.3396699 C46.6096675,47.4971864 46.5436176,47.6547028 46.4775678,47.8122193 C46.5898526,47.5628182 46.7153473,47.3199804 46.867262,47.0902689 C46.880472,47.0705793 46.9795468,46.9130629 46.9927568,46.9130629 C46.9993618,46.9130629 46.6625074,47.3134172 46.8408421,47.1099585 C46.9333119,47.0049475 47.0257817,46.8933733 47.1314615,46.7949256 C47.2239314,46.703041 47.3230062,46.6177196 47.415476,46.5323982 C47.5409708,46.420824 47.7325154,46.3683185 47.2503513,46.6570987 C47.2965862,46.6308459 47.3428212,46.5914668 47.3890561,46.5586509 C47.6334406,46.3945713 47.8844302,46.2633076 48.1552346,46.1451702 C47.9967149,46.2108021 47.8381952,46.2764339 47.6796755,46.3420658 C48.0363449,46.1976757 48.4062242,46.0926647 48.7893135,46.0335961 C48.6109788,46.0598488 48.4392491,46.0795384 48.2609145,46.1057911 C48.6902387,46.0467224 49.1129579,46.0467224 49.5422821,46.1057911 C49.3639474,46.0795384 49.1922177,46.0598488 49.0138831,46.0335961 C49.3969723,46.0926647 49.7668517,46.1911125 50.123521,46.3420658 C49.9650013,46.2764339 49.8064816,46.2108021 49.6479619,46.1451702 C49.8989514,46.2567444 50.143336,46.3814449 50.3745105,46.5323982 C50.3943255,46.5455245 50.5528452,46.6439723 50.5528452,46.6570987 C50.5528452,46.6636619 50.1499409,46.3289394 50.3546956,46.5061454 C50.4603754,46.59803 50.5726602,46.6899146 50.671735,46.7949256 C50.7642048,46.8868102 50.8500696,46.9852579 50.9359345,47.0771425 C51.0482193,47.2018431 51.1010592,47.3921754 50.8104397,46.9130629 C50.8368597,46.9590052 50.8764896,47.0049475 50.9095145,47.0508898 C51.0746392,47.2937276 51.206739,47.5431287 51.3256288,47.8122193 C51.2595789,47.6547028 51.193529,47.4971864 51.1274791,47.3396699 C51.2727889,47.6940819 51.3784687,48.0616203 51.4379136,48.4422851 C51.4114936,48.2650791 51.3916786,48.0944362 51.3652587,47.9172302 C51.4247036,48.3438373 51.4247036,48.7638811 51.3652587,49.1904882 C51.3916786,49.0132822 51.4114936,48.8426394 51.4379136,48.6654334 C51.3784687,49.0460981 51.2793939,49.4136365 51.1274791,49.7680485 C51.193529,49.610532 51.2595789,49.4530156 51.3256288,49.2954991 C51.213344,49.5449002 51.0878492,49.787738 50.9359345,50.0174495 C50.9227245,50.0371391 50.8236497,50.1946555 50.8104397,50.1946555 C50.8038347,50.1946555 51.1406891,49.7943012 50.9623544,49.99776 C50.8698846,50.1027709 50.7774148,50.2143451 50.671735,50.3127929 C50.5792652,50.4046775 50.4801903,50.4899989 50.3877205,50.5753203 C50.2622257,50.6868944 50.0706811,50.7393999 50.5528452,50.4506198 C50.5066103,50.4768725 50.4603754,50.5162516 50.4141405,50.5490675 C50.1697559,50.7131472 49.9187664,50.8444109 49.6479619,50.9625482 C49.8064816,50.8969163 49.9650013,50.8312845 50.123521,50.7656526 C49.7668517,50.9100427 49.3969723,51.0150537 49.0138831,51.0741223 C49.1922177,51.0478696 49.3639474,51.0281801 49.5422821,51.0019273 C49.1129579,51.060996 48.6902387,51.060996 48.2609145,51.0019273 C48.4392491,51.0281801 48.6109788,51.0478696 48.7893135,51.0741223 C48.4062242,51.0150537 48.0363449,50.9166059 47.6796755,50.7656526 C47.8381952,50.8312845 47.9967149,50.8969163 48.1552346,50.9625482 C47.9042451,50.8509741 47.6598606,50.7262735 47.428686,50.5753203 C47.408871,50.5621939 47.2503513,50.4637461 47.2503513,50.4506198 C47.2503513,50.4440566 47.6532556,50.778779 47.448501,50.601573 C47.3428212,50.5096884 47.2305364,50.4178038 47.1314615,50.3127929 C47.0389917,50.2209083 46.9531269,50.1224605 46.867262,50.0305759 C46.7549772,49.9058754 46.7021373,49.715543 46.9927568,50.1946555 C46.9663369,50.1487132 46.9267069,50.1027709 46.893682,50.0568286 C46.7285573,49.8139908 46.5964575,49.5645897 46.4775678,49.2954991 C46.5436176,49.4530156 46.6096675,49.610532 46.6757174,49.7680485 C46.5304077,49.4136365 46.4247279,49.0460981 46.365283,48.6654334 C46.3917029,48.8426394 46.4115179,49.0132822 46.4379378,49.1904882 C46.4115179,48.9804663 46.3917029,48.7704443 46.3917029,48.5538592 C46.3784929,47.5234391 45.4868196,46.5389613 44.4102066,46.5849036 C43.3468036,46.6308459 42.4155003,47.4446809 42.4287103,48.5538592 Z" id="Path"></path>
                    <path d="M18.8572827,48.5538592 C18.8704927,49.8271172 19.2403719,51.1463174 19.9933405,52.1898638 C20.8255689,53.3384213 21.8889718,54.1391299 23.2231792,54.6379319 C25.6009747,55.5239619 28.5930339,54.7363797 30.2112558,52.7936769 C31.1557689,51.6582458 31.6841679,50.3915511 31.8030577,48.9213976 C31.9087375,47.6678292 31.5520682,46.315813 30.8981744,45.2394507 C30.2574907,44.1959042 29.2997675,43.2770583 28.1703147,42.7651298 C26.8162923,42.1481904 25.40943,41.9775476 23.9497278,42.2597646 C20.9840886,42.8373249 18.8837026,45.6201154 18.8572827,48.5538592 C18.8440727,49.5842793 19.7753759,50.5687571 20.8387789,50.5228148 C21.9219968,50.4768725 22.8070651,49.6564743 22.820275,48.5538592 C22.820275,48.3372741 22.84009,48.1272522 22.8665099,47.9172302 C22.84009,48.0944362 22.820275,48.2650791 22.7938551,48.4422851 C22.8533,48.0616203 22.9523748,47.6940819 23.1042895,47.3396699 C23.0382396,47.4971864 22.9721897,47.6547028 22.9061399,47.8122193 C23.0184246,47.5628182 23.1439194,47.3199804 23.2958341,47.0902689 C23.3090441,47.0705793 23.4081189,46.9130629 23.4213289,46.9130629 C23.4279339,46.9130629 23.0910795,47.3134172 23.2694142,47.1099585 C23.361884,47.0049475 23.4543538,46.8933733 23.5600336,46.7949256 C23.6525034,46.703041 23.7515782,46.6177196 23.844048,46.5323982 C23.9695428,46.420824 24.1610874,46.3683185 23.6789234,46.6570987 C23.7251583,46.6308459 23.7713932,46.5914668 23.8176281,46.5586509 C24.0620126,46.3945713 24.3130021,46.2633076 24.5838066,46.1451702 C24.4252869,46.2108021 24.2667672,46.2764339 24.1082475,46.3420658 C24.4649169,46.1976757 24.8347961,46.0926647 25.2178854,46.0335961 C25.0395507,46.0598488 24.8678211,46.0795384 24.6894864,46.1057911 C25.1188106,46.0467224 25.5415298,46.0467224 25.9708539,46.1057911 C25.7925193,46.0795384 25.6207896,46.0598488 25.442455,46.0335961 C25.8255442,46.0926647 26.1954235,46.1911125 26.5520928,46.3420658 C26.3935731,46.2764339 26.2350534,46.2108021 26.0765337,46.1451702 C26.3275233,46.2567444 26.5719078,46.3814449 26.8030823,46.5323982 C26.8228973,46.5455245 26.981417,46.6439723 26.981417,46.6570987 C26.981417,46.6636619 26.5785128,46.3289394 26.7832674,46.5061454 C26.8889472,46.59803 27.001232,46.6899146 27.1003068,46.7949256 C27.1927766,46.8868102 27.2786414,46.9852579 27.3645063,47.0771425 C27.476791,47.2018431 27.5296309,47.3921754 27.2390115,46.9130629 C27.2654314,46.9590052 27.3050614,47.0049475 27.3380863,47.0508898 C27.503211,47.2937276 27.6353107,47.5431287 27.7542005,47.8122193 C27.6881506,47.6547028 27.6221008,47.4971864 27.5560509,47.3396699 C27.7013606,47.6940819 27.8070404,48.0616203 27.8664853,48.4422851 C27.8400653,48.2650791 27.8202504,48.0944362 27.7938304,47.9172302 C27.8532753,48.3438373 27.8532753,48.7638811 27.7938304,49.1904882 C27.8202504,49.0132822 27.8400653,48.8426394 27.8664853,48.6654334 C27.8070404,49.0460981 27.7079656,49.4136365 27.5560509,49.7680485 C27.6221008,49.610532 27.6881506,49.4530156 27.7542005,49.2954991 C27.6419157,49.5449002 27.516421,49.787738 27.3645063,50.0174495 C27.3512963,50.0371391 27.2522215,50.1946555 27.2390115,50.1946555 C27.2324065,50.1946555 27.5692609,49.7943012 27.3909262,49.99776 C27.2984564,50.1027709 27.2059866,50.2143451 27.1003068,50.3127929 C27.0078369,50.4046775 26.9087621,50.4899989 26.8162923,50.5753203 C26.6907976,50.6868944 26.4992529,50.7393999 26.981417,50.4506198 C26.9351821,50.4768725 26.8889472,50.5162516 26.8427123,50.5490675 C26.5983277,50.7131472 26.3473382,50.8444109 26.0765337,50.9625482 C26.2350534,50.8969163 26.3935731,50.8312845 26.5520928,50.7656526 C26.1954235,50.9100427 25.8255442,51.0150537 25.442455,51.0741223 C25.6207896,51.0478696 25.7925193,51.0281801 25.9708539,51.0019273 C25.5415298,51.060996 25.1188106,51.060996 24.6894864,51.0019273 C24.8678211,51.0281801 25.0395507,51.0478696 25.2178854,51.0741223 C24.8347961,51.0150537 24.4649169,50.9166059 24.1082475,50.7656526 C24.2667672,50.8312845 24.4252869,50.8969163 24.5838066,50.9625482 C24.3328171,50.8509741 24.0884326,50.7262735 23.857258,50.5753203 C23.8374431,50.5621939 23.6789234,50.4637461 23.6789234,50.4506198 C23.6789234,50.4440566 24.0818276,50.778779 23.877073,50.601573 C23.7713932,50.5096884 23.6591084,50.4178038 23.5600336,50.3127929 C23.4675638,50.2209083 23.3816989,50.1224605 23.2958341,50.0305759 C23.1835493,49.9058754 23.1307094,49.715543 23.4213289,50.1946555 C23.3949089,50.1487132 23.355279,50.1027709 23.3222541,50.0568286 C23.1571294,49.8139908 23.0250296,49.5645897 22.9061399,49.2954991 C22.9721897,49.4530156 23.0382396,49.610532 23.1042895,49.7680485 C22.9589798,49.4136365 22.8533,49.0460981 22.7938551,48.6654334 C22.820275,48.8426394 22.84009,49.0132822 22.8665099,49.1904882 C22.84009,48.9804663 22.820275,48.7704443 22.820275,48.5538592 C22.8070651,47.5234391 21.9153918,46.5389613 20.8387789,46.5849036 C19.7687709,46.6308459 18.8440727,47.4446809 18.8572827,48.5538592 Z" id="Path"></path>
                </g>
            </g>
        </g>
    </g>
</svg>