<?xml version="1.0" encoding="UTF-8"?>
<svg width="308px" height="280px" viewBox="0 0 308 280" version="1.1" xmlns="http://www.w3.org/2000/svg" xmlns:xlink="http://www.w3.org/1999/xlink">
    <!-- Generator: Sketch 60 (88103) - https://sketch.com -->
    <title>fullbedICON</title>
    <desc>Created with Sketch.</desc>
    <g id="Hifi" stroke="none" stroke-width="1" fill="none" fill-rule="evenodd">
        <g id="Landing-Page" transform="translate(-216.000000, -1556.000000)">
            <g id="part-3" transform="translate(216.000000, 1556.000000)">
                <g id="fullbed">
                    <g id="fullbedICON">
                        <rect id="Rectangle" fill="#EDE4E4" x="0" y="0" width="280" height="280" rx="34"></rect>
                        <path d="M303.717058,135.356109 L128.999847,33.6821793 C123.116213,30.6816576 116.153746,30.6816576 110.270112,33.6821793 L23.3329252,84.0034293 C18.1822481,86.9726957 18.1510318,91.8485435 23.3329252,94.8178098 L198.143785,196.491739 C204.026195,199.497364 210.991111,199.497364 216.87352,196.491739 L303.529761,146.170489 C308.805303,143.201223 308.836519,138.325375 303.717058,135.356109 Z M150.757556,64.5625489 L150.757556,64.5625489 C150.757556,64.5625489 150.757556,64.5625489 150.757556,64.5625489 L150.757556,64.5625489 L150.757556,64.5625489 L150.757556,64.5625489 L150.757556,64.5625489 L150.757556,64.5625489 L150.757556,64.5625489 L150.757556,64.5625489 L150.757556,64.5625489 L150.570258,65.8440217 L150.570258,65.8440217 L150.570258,65.8440217 L150.351745,66.0628098 L150.351745,66.0628098 L150.351745,66.0628098 L150.351745,66.0628098 L150.351745,66.0628098 L150.351745,66.0628098 L150.351745,66.0628098 L150.351745,66.0628098 L83.0495637,105.257125 L82.5813203,105.507168 L82.5813203,105.507168 L82.2067256,105.507168 L81.8945634,105.507168 L81.6448336,105.507168 L81.42632,105.507168 L81.145374,105.507168 L80.9580766,105.507168 L80.3961846,105.507168 L78.1798326,105.507168 L77.8988866,105.507168 L77.7115892,105.507168 L77.399427,105.507168 L77.2433458,105.507168 L76.71267,105.319636 L76.71267,105.319636 L76.0259131,105.007082 L42.9054983,86.1287989 C42.0304738,85.7944851 41.4158295,84.9980639 41.3134708,84.0659402 C41.3134708,82.6907011 41.3134708,81.3467174 41.3134708,79.9714783 C41.3928705,80.874559 41.954249,81.663868 42.7806334,82.034337 L75.9634806,101.162663 L76.6502376,101.475217 L76.6502376,101.475217 L77.1809134,101.66275 L77.1809134,101.66275 L77.4930756,101.66275 L77.680373,101.66275 L77.961319,101.66275 L80.1464548,101.66275 L80.7083468,101.66275 L80.8956442,101.66275 L81.1765902,101.66275 L81.3638875,101.66275 L81.6448336,101.66275 L81.6448336,101.66275 L82.0506445,101.66275 L82.0506445,101.66275 L82.5188879,101.412707 L149.446474,62.5309457 L149.633772,62.5309457 L149.821069,62.5309457 L149.821069,62.5309457 L149.821069,62.5309457 L149.821069,62.5309457 L150.039583,62.2809022 L150.039583,62.2809022 L150.039583,62.0933696 L150.039583,62.0933696 L150.039583,62.0933696 L150.039583,62.0933696 L150.039583,62.0933696 C150.882421,61.8433261 150.882421,63.2185652 150.882421,64.5625489 L150.757556,64.5625489 Z" id="Shape" fill="#A39171" fill-rule="nonzero"></path>
                        <path d="M307.556654,144.701484 C307.350188,147.153316 305.797686,149.28617 303.529761,150.233696 L216.655007,200.429924 C216.081971,200.751827 215.487453,201.033794 214.875682,201.273821 L214.688385,201.273821 L213.283655,201.742652 L212.877844,201.742652 L212.003789,201.96144 L211.473113,201.96144 L210.723924,201.96144 L210.162032,201.96144 L209.475275,201.96144 L208.882167,201.96144 L206.29122,201.96144 L205.354733,201.96144 L204.948922,201.96144 L203.419327,201.742652 L202.919868,201.742652 L202.201895,201.586375 L201.702435,201.586375 L200.984462,201.398842 L200.609867,201.398842 L199.579732,200.992522 L199.205137,200.836245 C198.778154,200.650172 198.361349,200.441508 197.956488,200.211136 L23.1456279,98.5372065 L22.6461683,98.1933967 L22.1779249,97.8808424 L21.8033302,97.5995435 L21.3975193,97.2557337 L21.3350868,97.2869891 L20.7731948,96.6618804 L20.5546812,96.411837 L20.2425189,95.9430054 L20.0552216,95.6304511 L19.8679242,95.2241304 L19.8679242,94.8803207 C19.8679242,94.8803207 19.8679242,94.6302772 19.8679242,94.474 L19.8679242,94.1301902 C19.8679242,94.1301902 19.8679242,93.8488913 19.8679242,93.7238696 C19.8679242,93.5988478 19.8679242,93.4738261 19.8679242,93.3175489 C19.8679242,96.9015054 19.8679242,100.485462 19.8679242,104.069418 L19.8679242,104.069418 C19.8679242,104.069418 19.8679242,104.256951 19.8679242,104.350717 C19.8679242,104.444484 19.8679242,104.632016 19.8679242,104.757038 L19.8679242,104.757038 L19.8679242,105.007082 L19.8679242,105.413402 L19.8679242,105.413402 L19.8679242,105.663446 L20.0864378,106.476087 L20.0864378,106.476087 L20.0864378,106.66362 L20.3986001,107.101196 L20.3986001,107.101196 L20.3986001,107.101196 L20.9604921,107.695049 L20.9604921,107.695049 L20.9604921,107.695049 L21.3350868,108.007603 L21.7408977,108.320158 L22.1467087,108.570201 L22.5525196,108.8515 L22.7086007,108.8515 L197.519461,210.525429 L198.736894,211.150538 L199.142705,211.306815 L200.141624,211.68188 L200.391354,211.68188 L200.547435,211.68188 L201.171759,211.869413 L201.733651,211.869413 L202.451624,211.869413 L202.888652,211.869413 L202.888652,211.869413 L204.38703,212.088201 L204.855274,212.088201 L205.729328,212.088201 L208.850951,212.088201 L209.537708,212.088201 L210.130816,212.088201 L210.848789,212.088201 L211.160951,212.088201 L211.348249,212.088201 L213.002709,212.744565 L213.314871,212.744565 L213.314871,212.744565 L214.719601,212.275734 L214.719601,212.275734 L214.719601,212.275734 C215.331101,212.03508 215.925576,211.753132 216.498926,211.431837 L303.685842,160.891799 C305.865199,159.915416 307.346201,157.834625 307.556654,155.453353 C307.556654,151.869397 307.556654,148.28544 307.556654,144.701484 Z" id="Path" fill="#A39171" fill-rule="nonzero"></path>
                        <path d="M307.58787,170.33094 L307.58787,186.239957 C307.58787,187.271386 305.090572,188.084027 301.96895,188.084027 C298.847327,188.084027 296.350029,187.271386 296.350029,186.239957 L296.350029,179.98887 L216.686223,226.05938 C216.112275,226.379514 215.517879,226.661423 214.906898,226.903277 L214.906898,226.903277 L214.906898,226.903277 L213.502168,227.372109 L213.502168,227.372109 L213.190006,227.372109 L212.440816,227.559641 L212.440816,241.624587 C212.440816,242.656016 209.943518,243.468658 206.821896,243.468658 C203.700273,243.468658 201.202975,242.656016 201.202975,241.624587 L201.202975,227.340853 L201.202975,227.340853 L200.953246,227.340853 L199.954326,226.965788 L199.548516,226.778255 L198.331083,226.153147 L30.6687381,128.667446 L30.6687381,134.605978 C30.6687381,135.637408 28.1714401,136.450049 25.0498176,136.450049 C21.9281951,136.450049 19.4621133,135.574897 19.4621133,134.605978 L19.4621133,112.727174 L19.4621133,112.727174 C19.4621133,111.226913 19.4621133,109.60163 19.4621133,108.226391 C19.4621133,108.226391 19.4621133,108.476435 19.4621133,108.632712 C19.4621133,108.788989 19.4621133,108.914011 19.4621133,109.039033 C19.4621133,109.164054 19.4621133,109.257821 19.4621133,109.382842 L19.4621133,109.789163 L19.4621133,110.132973 L19.6494107,110.539293 L19.836708,110.851848 L20.1488703,111.320679 L20.3361676,111.570723 L20.3361676,111.570723 L20.8356272,112.102065 L21.0541408,112.320853 L21.4599517,112.633408 L21.8345464,112.914707 L22.2715736,113.227261 L22.8022494,113.539815 L24.6127904,114.6025 L30.2004947,117.728043 L198.018921,215.307511 L199.236353,215.93262 L199.610948,215.93262 L200.641083,216.33894 L201.015678,216.33894 L201.702435,216.526473 L202.201895,216.526473 L202.919868,216.526473 L203.419327,216.526473 L204.948922,216.714005 L205.354733,216.714005 L206.29122,216.714005 L208.882167,216.714005 L209.444059,216.714005 L210.130816,216.714005 L210.692708,216.714005 L211.410681,216.714005 L211.941357,216.714005 L213.002709,216.807772 L213.408519,216.807772 L214.844466,216.33894 L215.031763,216.33894 C215.633119,216.098146 216.217203,215.81618 216.779872,215.495043 L296.350029,169.237 L301.344625,166.3615 L303.685842,165.017516 C304.527952,164.537821 305.295636,163.937643 305.964627,163.235957 C306.936789,162.27431 307.50614,160.977689 307.556654,159.610326 C307.556654,161.204353 307.556654,162.73587 307.556654,164.454918 L307.556654,164.454918 L307.556654,164.673707 L307.556654,164.673707 C307.556654,166.549033 307.556654,168.424359 307.58787,170.33094 Z" id="Path" fill="#A39171" fill-rule="nonzero"></path>
                    </g>
                </g>
            </g>
        </g>
    </g>
</svg>