<?xml version="1.0" encoding="UTF-8"?>
<svg width="312px" height="280px" viewBox="0 0 312 280" version="1.1" xmlns="http://www.w3.org/2000/svg" xmlns:xlink="http://www.w3.org/1999/xlink">
    <!-- Generator: Sketch 60 (88103) - https://sketch.com -->
    <title>mattressICON</title>
    <desc>Created with Sketch.</desc>
    <g id="Hifi" stroke="none" stroke-width="1" fill="none" fill-rule="evenodd">
        <g id="Landing-Page" transform="translate(-920.000000, -1564.000000)">
            <g id="part-3" transform="translate(216.000000, 1556.000000)">
                <g id="mattress" transform="translate(704.000000, 8.000000)">
                    <g id="mattressICON">
                        <rect id="Rectangle" fill="#EDE4E4" x="0" y="0" width="280" height="280" rx="34"></rect>
                        <path d="M38.7348315,74.625 C33.7861798,77.5 33.7550562,82.1875 38.7348315,85.03125 L206.584382,183 C212.217656,185.872685 218.878299,185.872685 224.511573,183 L308.109551,134.5625 C313.058202,131.6875 313.089326,127 308.109551,124.15625 L140.26,26.15625 C134.625521,23.2886212 127.967288,23.2886212 122.332809,26.15625 L38.7348315,74.625 Z" id="Path" fill="#A39171" fill-rule="nonzero"></path>
                        <path d="M311.813258,133.125 C311.633663,135.434779 310.196268,137.455305 308.078427,138.375 L224.511573,186.8125 C223.970757,187.122073 223.409182,187.393559 222.830899,187.625 L222.644157,187.625 L221.274719,188.09375 L220.870112,188.09375 L220.029775,188.3125 L219.531798,188.3125 L218.815955,188.3125 L218.286854,188.3125 L217.602135,188.3125 L214.489775,188.3125 L213.587191,188.3125 L213.182584,188.3125 L211.719775,188.09375 L211.252921,188.09375 L210.537079,188.09375 L210.070225,188.09375 L209.385506,187.90625 L209.043146,187.90625 L208.047191,187.53125 L207.704831,187.53125 L206.522135,186.9375 L38.6725843,88.84375 L38.1123596,88.53125 L37.6766292,88.25 L37.3342697,87.96875 L36.9607865,87.65625 L36.8051685,87.4375 L36.2449438,86.84375 L36.0582022,86.5 L35.7469663,86.0625 L35.5913483,85.875 L35.4046067,85.5 L35.4046067,85.1875 L35.4046067,84.8125 L35.4046067,84.5 C35.4046067,84.5 35.4046067,84.25 35.4046067,84.09375 C35.4046067,83.9375 35.4046067,83.84375 35.4046067,83.71875 C35.4046067,87.1770833 35.4046067,90.6354167 35.4046067,94.09375 L35.4046067,94.09375 C35.4046067,94.09375 35.4046067,94.28125 35.4046067,94.375 C35.4046067,94.46875 35.4046067,94.625 35.4046067,94.78125 L35.4046067,94.78125 L35.4046067,95.03125 L35.4046067,95.40625 L35.4046067,95.40625 L35.4046067,95.625 L35.5913483,96.03125 L35.5913483,96.03125 L35.5913483,96.21875 L35.8714607,96.65625 L35.8714607,96.65625 L35.8714607,96.65625 L36.4005618,97.25 L36.4005618,97.25 L36.4005618,97.25 L36.7740449,97.5625 L37.1475281,97.875 L38.1123596,99 L38.4858427,99.25 L38.4858427,99.25 L206.615506,197.1875 L207.798202,197.78125 L208.171685,197.9375 L209.105393,198.3125 L209.354382,198.3125 L209.51,198.3125 L210.132472,198.5 L210.661573,198.5 L211.346292,198.5 L211.750899,198.5 L211.750899,198.5 L213.182584,198.71875 L213.649438,198.71875 L214.489775,198.71875 L217.602135,198.71875 L218.25573,198.71875 L218.815955,198.71875 L219.500674,198.71875 L219.81191,198.71875 L219.998652,198.71875 L220.807865,198.5 L221.119101,198.5 L221.119101,198.5 L222.488539,198.03125 L222.488539,198.03125 L222.488539,198.03125 C223.066466,197.798997 223.627987,197.527537 224.169213,197.21875 L308.140674,148.75 C310.307057,147.866679 311.797704,145.838891 312,143.5 C311.896255,140.041667 311.834007,136.583333 311.813258,133.125 Z" id="Path" fill="#A39171" fill-rule="nonzero"></path>
                    </g>
                </g>
            </g>
        </g>
    </g>
</svg>