<?xml version="1.0" encoding="UTF-8"?>
<svg width="250px" height="55px" viewBox="0 0 250 55" version="1.1" xmlns="http://www.w3.org/2000/svg" xmlns:xlink="http://www.w3.org/1999/xlink">
    <!-- Generator: Sketch 60 (88103) - https://sketch.com -->
    <title>Input/Search</title>
    <desc>Created with Sketch.</desc>
    <g id="Hifi" stroke="none" stroke-width="1" fill="none" fill-rule="evenodd">
        <g id="Landing-Page" transform="translate(-120.000000, -51.000000)">
            <g id="Input/Search" transform="translate(120.000000, 51.000000)">
                <rect id="Rectangle-17" fill="#EDE4E4" x="0" y="0" width="250" height="55" rx="27.5"></rect>
                <text id="Search…" font-family="Muli-Regular_Bold, Muli" font-size="24" font-weight="bold" line-spacing="16.7999992" letter-spacing="2" fill="#67584F">
                    <tspan x="67" y="48">Search…</tspan>
                </text>
                <g id="ic_search" transform="translate(14.000000, 7.000000)">
                    <polygon id="Bounds" fill-opacity="0" fill="#FFFFFF" points="0 0 41 0 41 41 0 41"></polygon>
                    <path d="M26.4791667,23.9166667 L25.1295833,23.9166667 L24.65125,23.4554167 C26.3254167,21.5079167 27.3333333,18.9795833 27.3333333,16.2291667 C27.3333333,10.09625 22.3620833,5.125 16.2291667,5.125 C10.09625,5.125 5.125,10.09625 5.125,16.2291667 C5.125,22.3620833 10.09625,27.3333333 16.2291667,27.3333333 C18.9795833,27.3333333 21.5079167,26.3254167 23.4554167,24.65125 L23.9166667,25.1295833 L23.9166667,26.4791667 L32.4583333,35.00375 L35.00375,32.4583333 L26.4791667,23.9166667 L26.4791667,23.9166667 Z M16.2291667,23.9166667 C11.9754167,23.9166667 8.54166667,20.4829167 8.54166667,16.2291667 C8.54166667,11.9754167 11.9754167,8.54166667 16.2291667,8.54166667 C20.4829167,8.54166667 23.9166667,11.9754167 23.9166667,16.2291667 C23.9166667,20.4829167 20.4829167,23.9166667 16.2291667,23.9166667 L16.2291667,23.9166667 Z" id="Shape" fill="#A39171"></path>
                </g>
            </g>
        </g>
    </g>
</svg>